<?xml version="1.0" encoding="UTF-8" standalone="no"?>
<svg
   viewBox="0 0 1440 320"
   preserveAspectRatio="none"
   version="1.1"
   id="svg4"
   sodipodi:docname="wave-bg.svg"
   inkscape:version="1.2.1 (9c6d41e410, 2022-07-14)"
   xmlns:inkscape="http://www.inkscape.org/namespaces/inkscape"
   xmlns:sodipodi="http://sodipodi.sourceforge.net/DTD/sodipodi-0.dtd"
   xmlns="http://www.w3.org/2000/svg"
   xmlns:svg="http://www.w3.org/2000/svg">
  <defs
     id="defs8" />
  <sodipodi:namedview
     id="namedview6"
     pagecolor="#ffffff"
     bordercolor="#999999"
     borderopacity="1"
     inkscape:showpageshadow="0"
     inkscape:pageopacity="0"
     inkscape:pagecheckerboard="0"
     inkscape:deskcolor="#d1d1d1"
     showgrid="false"
     inkscape:zoom="0.93055556"
     inkscape:cx="721.61194"
     inkscape:cy="161.73134"
     inkscape:window-width="3440"
     inkscape:window-height="1404"
     inkscape:window-x="0"
     inkscape:window-y="0"
     inkscape:window-maximized="1"
     inkscape:current-layer="svg4" />
  <path
     fill="#f4f6f8"
     fill-opacity="1"
     d="m 0,141.99268 21.8,-2.9397 C 43.6,135.89143 87,130.34484 131,106.49451 174.5,82.644175 218,41.599417 262,44.372711 c 43.5,2.773295 87,50.473959 131,59.182099 43.4,9.04094 87,-20.910635 131,-20.744238 43.3,-0.166397 87,29.785178 131,26.623628 43.2,-2.93969 87,-38.437862 130,-59.126639 44.1,-20.91064 88,-26.457229 131,-11.8697 44,14.809392 88,50.307561 131,59.182104 43.9,8.874545 88,-8.874543 131,-20.688777 43.8,-12.036098 87,-17.582687 131,-14.809392 43.7,2.773294 87,14.97579 109,20.688776 l 22,5.93485 V 0 h -21.8 C 1396.4,0 1353,0 1309,0 1265.5,0 1222,0 1178,0 1134.5,0 1091,0 1047,0 1003.6,0 960,0 916,0 872.7,0 829,0 785,0 741.8,0 698,0 655,0 610.9,0 567,0 524,0 480,0 436,0 393,0 349.1,0 305,0 262,0 218.2,0 175,0 131,0 87.3,0 44,0 22,0 H 0 Z"
     id="path2"
     style="stroke-width:0.744754;fill:#f4f4f9;fill-opacity:1" />
</svg>
